<svg width="130" height="40" viewBox="0 0 130 40" fill="none" xmlns="http://www.w3.org/2000/svg">
<rect width="40" height="40" rx="6.4257" fill="#1E6AFF"/>
<path d="M14.1928 25.2489C14.1928 29.3697 9.51448 31.6646 9.05961 31.878C9.03494 31.8895 9.01336 31.8895 8.9887 31.878C8.53383 31.6646 3.85547 29.3697 3.85547 25.2489C3.85547 22.3943 6.16957 20.0802 9.02415 20.0802C11.8787 20.0802 14.1928 22.3943 14.1928 25.2489Z" fill="white"/>
<path d="M37.0041 12.3982C37.0041 16.519 32.3258 18.8139 31.8709 19.0273C31.8462 19.0388 31.8246 19.0388 31.8 19.0273C31.3451 18.8139 26.6667 16.519 26.6667 12.3982C26.6667 9.54359 28.9808 7.22949 31.8354 7.22949C34.69 7.22949 37.0041 9.54359 37.0041 12.3982Z" fill="white"/>
<path d="M7.9519 30.6024C17.4298 32.1285 36.0956 26.2735 23.4294 24.2211C10.7631 22.1686 21.6065 18.2329 32.6105 17.751" stroke="white" stroke-width="1.28514" stroke-dasharray="2.89 2.89"/>
<path d="M29.7292 15.0529V11.0707H33.8398V11.9485H30.8318V12.4623H32.5071C33.7435 12.4623 34.1289 12.9922 34.1289 13.7201V13.779C34.1289 14.5069 33.7274 15.0529 32.5071 15.0529H29.7292ZM30.8318 14.1751H32.4215C32.8015 14.1751 32.9835 14.0092 32.9835 13.7683V13.7308C32.9835 13.4953 32.8015 13.3401 32.4215 13.3401H30.8318V14.1751Z" fill="#1E6AFF"/>
<path d="M9.69582 26.129L8.97325 24.5072L8.27209 26.129H9.69582ZM10.3916 27.6865L10.0651 26.9479H7.91349L7.59235 27.6865H6.48441L8.25068 23.7044H9.72793L11.5745 27.6865H10.3916Z" fill="#1E6AFF"/>
<path d="M54.8962 9.20566H57.6104V23.373H54.8962V9.20566ZM48.5219 7.95136H63.9847V10.3366H48.5219V7.95136ZM65.4101 19.8363V17.5951H76.1847V19.8363H65.4101ZM72.5657 7.95136L79.9681 23.373H77.0689L70.345 8.97947H71.3937L64.6698 23.373H61.7705L69.173 7.95136H72.5657ZM81.8478 23.373V7.95136H84.562V21.0906L83.7395 20.5766L94.0618 7.95136H97.0022L84.2742 23.373H81.8478ZM89.1885 15.6211L91.1008 13.7499L97.2284 23.373H94.1235L89.1885 15.6211ZM97.5686 18.3559H100.324C100.406 18.9727 100.66 19.5142 101.085 19.9803C101.523 20.4464 102.099 20.8096 102.812 21.0701C103.525 21.3168 104.347 21.4402 105.279 21.4402C106.664 21.4402 107.761 21.2277 108.569 20.8028C109.378 20.3641 109.783 19.7747 109.783 19.0344C109.783 18.4313 109.55 17.9789 109.083 17.6773C108.617 17.3757 107.774 17.1495 106.554 16.9987L103.223 16.5669C101.359 16.3202 100.002 15.861 99.1519 15.1893C98.3157 14.5039 97.8976 13.5374 97.8976 12.29C97.8976 11.3441 98.1786 10.5285 98.7407 9.84309C99.3164 9.14397 100.125 8.60935 101.167 8.23923C102.209 7.8554 103.429 7.66349 104.827 7.66349C106.212 7.66349 107.438 7.86911 108.508 8.28035C109.577 8.6916 110.427 9.26734 111.057 10.0076C111.702 10.7341 112.051 11.5909 112.106 12.5779H109.351C109.282 12.0295 109.049 11.5566 108.652 11.1591C108.268 10.7615 107.747 10.4531 107.089 10.2338C106.431 10.0007 105.656 9.88421 104.765 9.88421C103.504 9.88421 102.497 10.0898 101.743 10.5011C100.989 10.9123 100.612 11.4744 100.612 12.1872C100.612 12.7355 100.831 13.1605 101.27 13.462C101.722 13.7499 102.504 13.9692 103.614 14.12L106.986 14.593C108.371 14.7849 109.46 15.0453 110.256 15.3743C111.064 15.6896 111.64 16.1214 111.983 16.6698C112.325 17.2044 112.497 17.8966 112.497 18.7465C112.497 19.7335 112.195 20.5971 111.592 21.3374C110.989 22.0776 110.139 22.6534 109.042 23.0646C107.959 23.4621 106.691 23.6609 105.238 23.6609C103.758 23.6609 102.449 23.4416 101.311 23.0029C100.187 22.5506 99.2958 21.9268 98.6379 21.1318C97.9799 20.3367 97.6234 19.4114 97.5686 18.3559ZM127.337 14.5313V16.7931H116.563V14.5313H127.337ZM118.352 15.6622L117.262 22.5506L115.966 21.029H127.934V23.373H114.486L115.72 15.6622L114.486 7.95136H127.831V10.2955H115.966L117.262 8.77385L118.352 15.6622Z" fill="white"/>
<path d="M50.9656 33.2477L52.373 30.0548H52.9611L51.2177 34.0879H50.7135L49.0016 30.0548H49.5792L50.9656 33.2477ZM49.3797 30.0548V34.0879H48.76V30.0548H49.3797ZM52.5515 34.0879V30.0548H53.1712V34.0879H52.5515ZM55.9964 34.1719C55.6078 34.1719 55.2726 34.0861 54.9908 33.9146C54.7107 33.7413 54.4945 33.4997 54.3423 33.1899C54.1917 32.8783 54.1164 32.516 54.1164 32.1029C54.1164 31.6898 54.1917 31.3257 54.3423 31.0106C54.4945 30.6937 54.7063 30.4469 54.9777 30.2701C55.2507 30.0916 55.5693 30.0023 55.9334 30.0023C56.1435 30.0023 56.3509 30.0373 56.5557 30.1073C56.7605 30.1774 56.9469 30.2911 57.115 30.4487C57.283 30.6045 57.4169 30.811 57.5167 31.0683C57.6165 31.3257 57.6664 31.6425 57.6664 32.0188V32.2814H54.5576V31.7458H57.0362C57.0362 31.5182 56.9907 31.3152 56.8997 31.1366C56.8104 30.9581 56.6826 30.8171 56.5163 30.7139C56.3518 30.6106 56.1575 30.559 55.9334 30.559C55.6866 30.559 55.4731 30.6202 55.2928 30.7428C55.1142 30.8635 54.9768 31.0211 54.8805 31.2154C54.7842 31.4097 54.7361 31.618 54.7361 31.8403V32.1974C54.7361 32.502 54.7886 32.7602 54.8936 32.972C55.0004 33.182 55.1483 33.3422 55.3374 33.4525C55.5264 33.561 55.7461 33.6153 55.9964 33.6153C56.1592 33.6153 56.3063 33.5925 56.4376 33.547C56.5706 33.4997 56.6852 33.4297 56.7815 33.3369C56.8778 33.2424 56.9522 33.1251 57.0047 32.9851L57.6034 33.1531C57.5403 33.3562 57.4344 33.5347 57.2857 33.6888C57.1369 33.8411 56.9531 33.9601 56.7343 34.0459C56.5155 34.1299 56.2695 34.1719 55.9964 34.1719ZM58.2486 34.0879L59.8871 32.0398L58.2696 30.0548H59.0048L60.3492 31.7773H60.6853V30.0548H61.3049V31.7773H61.6305L62.9749 30.0548H63.7101L62.1032 32.0398L63.7311 34.0879H62.9854L61.62 32.3549H61.3049V34.0879H60.6853V32.3549H60.3702L58.9943 34.0879H58.2486ZM64.186 35.2432V33.5102H64.5221C64.6043 33.4245 64.6752 33.3317 64.7348 33.2319C64.7943 33.1321 64.8459 33.014 64.8897 32.8774C64.9352 32.7392 64.9737 32.5711 65.0052 32.3733C65.0367 32.1738 65.0647 31.9331 65.0892 31.6512L65.2258 30.0548H67.7884V33.5102H68.4081V35.2432H67.7884V34.0879H64.8056V35.2432H64.186ZM65.2258 33.5102H67.1688V30.6325H65.8034L65.6984 31.6512C65.6546 32.0731 65.6004 32.4416 65.5356 32.7567C65.4708 33.0717 65.3675 33.3229 65.2258 33.5102ZM69.6297 35.6003C69.5247 35.6003 69.431 35.5915 69.3488 35.574C69.2665 35.5583 69.2096 35.5425 69.1781 35.5268L69.3356 34.9806C69.4862 35.0191 69.6192 35.0331 69.7347 35.0226C69.8503 35.0121 69.9527 34.9605 70.0419 34.8677C70.133 34.7767 70.2161 34.6288 70.2914 34.424L70.4069 34.1089L68.9155 30.0548H69.5877L70.701 33.2687H70.743L71.8563 30.0548H72.5285L70.8165 34.676C70.7395 34.8844 70.6441 35.0568 70.5303 35.1933C70.4165 35.3316 70.2844 35.434 70.1338 35.5005C69.9851 35.567 69.817 35.6003 69.6297 35.6003ZM75.8355 30.0548V30.6325H73.966V34.0879H73.3464V30.0548H75.8355ZM78.1691 34.1719C77.805 34.1719 77.4856 34.0853 77.2107 33.912C76.9377 33.7387 76.7241 33.4962 76.5701 33.1847C76.4178 32.8731 76.3416 32.509 76.3416 32.0924C76.3416 31.6723 76.4178 31.3055 76.5701 30.9922C76.7241 30.6789 76.9377 30.4355 77.2107 30.2623C77.4856 30.089 77.805 30.0023 78.1691 30.0023C78.5332 30.0023 78.8518 30.089 79.1249 30.2623C79.3997 30.4355 79.6133 30.6789 79.7655 30.9922C79.9196 31.3055 79.9966 31.6723 79.9966 32.0924C79.9966 32.509 79.9196 32.8731 79.7655 33.1847C79.6133 33.4962 79.3997 33.7387 79.1249 33.912C78.8518 34.0853 78.5332 34.1719 78.1691 34.1719ZM78.1691 33.6153C78.4457 33.6153 78.6733 33.5444 78.8518 33.4026C79.0304 33.2608 79.1625 33.0744 79.2483 32.8433C79.3341 32.6122 79.3769 32.3619 79.3769 32.0924C79.3769 31.8228 79.3341 31.5716 79.2483 31.3388C79.1625 31.106 79.0304 30.9178 78.8518 30.7743C78.6733 30.6307 78.4457 30.559 78.1691 30.559C77.8926 30.559 77.665 30.6307 77.4864 30.7743C77.3079 30.9178 77.1757 31.106 77.09 31.3388C77.0042 31.5716 76.9613 31.8228 76.9613 32.0924C76.9613 32.3619 77.0042 32.6122 77.09 32.8433C77.1757 33.0744 77.3079 33.2608 77.4864 33.4026C77.665 33.5444 77.8926 33.6153 78.1691 33.6153ZM80.9425 35.6003V30.0548H81.5412V30.6955H81.6147C81.6602 30.6255 81.7232 30.5362 81.8037 30.4277C81.886 30.3174 82.0033 30.2194 82.1556 30.1336C82.3096 30.0461 82.5179 30.0023 82.7805 30.0023C83.1201 30.0023 83.4194 30.0872 83.6785 30.257C83.9376 30.4268 84.1397 30.6675 84.285 30.9791C84.4303 31.2906 84.503 31.6582 84.503 32.0819C84.503 32.509 84.4303 32.8792 84.285 33.1925C84.1397 33.5041 83.9384 33.7457 83.6811 33.9172C83.4238 34.087 83.1271 34.1719 82.791 34.1719C82.5319 34.1719 82.3245 34.129 82.1687 34.0433C82.0129 33.9557 81.893 33.8568 81.809 33.7466C81.725 33.6345 81.6602 33.5417 81.6147 33.4682H81.5622V35.6003H80.9425ZM81.5517 32.0714C81.5517 32.3759 81.5963 32.6446 81.6856 32.8774C81.7749 33.1085 81.9053 33.2897 82.0768 33.421C82.2484 33.5505 82.4584 33.6153 82.707 33.6153C82.9661 33.6153 83.1822 33.547 83.3555 33.4105C83.5306 33.2722 83.6619 33.0866 83.7494 32.8538C83.8387 32.6193 83.8833 32.3584 83.8833 32.0714C83.8833 31.7878 83.8395 31.5322 83.752 31.3047C83.6662 31.0753 83.5358 30.8942 83.3608 30.7611C83.1875 30.6263 82.9696 30.559 82.707 30.559C82.4549 30.559 82.2431 30.6228 82.0716 30.7506C81.9 30.8767 81.7705 31.0535 81.683 31.281C81.5954 31.5068 81.5517 31.7703 81.5517 32.0714ZM87.0866 34.1719C86.7225 34.1719 86.4031 34.0853 86.1283 33.912C85.8552 33.7387 85.6416 33.4962 85.4876 33.1847C85.3353 32.8731 85.2592 32.509 85.2592 32.0924C85.2592 31.6723 85.3353 31.3055 85.4876 30.9922C85.6416 30.6789 85.8552 30.4355 86.1283 30.2623C86.4031 30.089 86.7225 30.0023 87.0866 30.0023C87.4507 30.0023 87.7693 30.089 88.0424 30.2623C88.3172 30.4355 88.5308 30.6789 88.6831 30.9922C88.8371 31.3055 88.9141 31.6723 88.9141 32.0924C88.9141 32.509 88.8371 32.8731 88.6831 33.1847C88.5308 33.4962 88.3172 33.7387 88.0424 33.912C87.7693 34.0853 87.4507 34.1719 87.0866 34.1719ZM87.0866 33.6153C87.3632 33.6153 87.5908 33.5444 87.7693 33.4026C87.9479 33.2608 88.08 33.0744 88.1658 32.8433C88.2516 32.6122 88.2945 32.3619 88.2945 32.0924C88.2945 31.8228 88.2516 31.5716 88.1658 31.3388C88.08 31.106 87.9479 30.9178 87.7693 30.7743C87.5908 30.6307 87.3632 30.559 87.0866 30.559C86.8101 30.559 86.5825 30.6307 86.404 30.7743C86.2254 30.9178 86.0933 31.106 86.0075 31.3388C85.9217 31.5716 85.8788 31.8228 85.8788 32.0924C85.8788 32.3619 85.9217 32.6122 86.0075 32.8433C86.0933 33.0744 86.2254 33.2608 86.404 33.4026C86.5825 33.5444 86.8101 33.6153 87.0866 33.6153ZM89.4294 35.2432V33.5102H89.7655C89.8478 33.4245 89.9187 33.3317 89.9782 33.2319C90.0377 33.1321 90.0893 33.014 90.1331 32.8774C90.1786 32.7392 90.2171 32.5711 90.2486 32.3733C90.2801 32.1738 90.3082 31.9331 90.3327 31.6512L90.4692 30.0548H93.0319V33.5102H93.6515V35.2432H93.0319V34.0879H90.0491V35.2432H89.4294ZM90.4692 33.5102H92.4122V30.6325H91.0468L90.9418 31.6512C90.8981 32.0731 90.8438 32.4416 90.779 32.7567C90.7143 33.0717 90.611 33.3229 90.4692 33.5102ZM97.1733 31.7878V32.3654H94.9467V31.7878H97.1733ZM95.0937 30.0548V34.0879H94.474V30.0548H95.0937ZM97.6459 30.0548V34.0879H97.0262V30.0548H97.6459ZM100.469 34.1719C100.08 34.1719 99.7447 34.0861 99.4629 33.9146C99.1828 33.7413 98.9666 33.4997 98.8143 33.1899C98.6638 32.8783 98.5885 32.516 98.5885 32.1029C98.5885 31.6898 98.6638 31.3257 98.8143 31.0106C98.9666 30.6937 99.1784 30.4469 99.4497 30.2701C99.7228 30.0916 100.041 30.0023 100.405 30.0023C100.616 30.0023 100.823 30.0373 101.028 30.1073C101.233 30.1774 101.419 30.2911 101.587 30.4487C101.755 30.6045 101.889 30.811 101.989 31.0683C102.089 31.3257 102.138 31.6425 102.138 32.0188V32.2814H99.0296V31.7458H101.508C101.508 31.5182 101.463 31.3152 101.372 31.1366C101.282 30.9581 101.155 30.8171 100.988 30.7139C100.824 30.6106 100.63 30.559 100.405 30.559C100.159 30.559 99.9451 30.6202 99.7648 30.7428C99.5863 30.8635 99.4489 31.0211 99.3526 31.2154C99.2563 31.4097 99.2082 31.618 99.2082 31.8403V32.1974C99.2082 32.502 99.2607 32.7602 99.3657 32.972C99.4725 33.182 99.6204 33.3422 99.8095 33.4525C99.9985 33.561 100.218 33.6153 100.469 33.6153C100.631 33.6153 100.778 33.5925 100.91 33.547C101.043 33.4997 101.157 33.4297 101.254 33.3369C101.35 33.2424 101.424 33.1251 101.477 32.9851L102.075 33.1531C102.012 33.3562 101.907 33.5347 101.758 33.6888C101.609 33.8411 101.425 33.9601 101.206 34.0459C100.988 34.1299 100.742 34.1719 100.469 34.1719ZM104.772 34.1719C104.383 34.1719 104.048 34.0861 103.766 33.9146C103.486 33.7413 103.27 33.4997 103.118 33.1899C102.967 32.8783 102.892 32.516 102.892 32.1029C102.892 31.6898 102.967 31.3257 103.118 31.0106C103.27 30.6937 103.482 30.4469 103.753 30.2701C104.026 30.0916 104.345 30.0023 104.709 30.0023C104.919 30.0023 105.126 30.0373 105.331 30.1073C105.536 30.1774 105.723 30.2911 105.891 30.4487C106.059 30.6045 106.193 30.811 106.292 31.0683C106.392 31.3257 106.442 31.6425 106.442 32.0188V32.2814H103.333V31.7458H105.812C105.812 31.5182 105.766 31.3152 105.675 31.1366C105.586 30.9581 105.458 30.8171 105.292 30.7139C105.127 30.6106 104.933 30.559 104.709 30.559C104.462 30.559 104.249 30.6202 104.068 30.7428C103.89 30.8635 103.752 31.0211 103.656 31.2154C103.56 31.4097 103.512 31.618 103.512 31.8403V32.1974C103.512 32.502 103.564 32.7602 103.669 32.972C103.776 33.182 103.924 33.3422 104.113 33.4525C104.302 33.561 104.522 33.6153 104.772 33.6153C104.935 33.6153 105.082 33.5925 105.213 33.547C105.346 33.4997 105.461 33.4297 105.557 33.3369C105.653 33.2424 105.728 33.1251 105.78 32.9851L106.379 33.1531C106.316 33.3562 106.21 33.5347 106.061 33.6888C105.912 33.8411 105.729 33.9601 105.51 34.0459C105.291 34.1299 105.045 34.1719 104.772 34.1719ZM109.233 30.6325V30.0548H112.51V30.6325H111.187V34.0879H110.567V30.6325H109.233ZM114.391 34.1824C114.136 34.1824 113.904 34.1343 113.695 34.038C113.487 33.94 113.322 33.7991 113.199 33.6153C113.077 33.4297 113.015 33.2057 113.015 32.9431C113.015 32.712 113.061 32.5247 113.152 32.3812C113.243 32.2359 113.365 32.1221 113.517 32.0398C113.669 31.9576 113.837 31.8963 114.021 31.856C114.207 31.814 114.393 31.7808 114.58 31.7563C114.825 31.7248 115.024 31.7011 115.176 31.6854C115.33 31.6679 115.442 31.639 115.512 31.5987C115.584 31.5585 115.62 31.4885 115.62 31.3887V31.3677C115.62 31.1086 115.549 30.9073 115.407 30.7638C115.267 30.6202 115.055 30.5485 114.769 30.5485C114.474 30.5485 114.242 30.6132 114.074 30.7428C113.906 30.8723 113.787 31.0106 113.719 31.1576L113.131 30.9476C113.236 30.7025 113.376 30.5117 113.551 30.3752C113.728 30.2369 113.92 30.1406 114.129 30.0863C114.339 30.0303 114.545 30.0023 114.748 30.0023C114.878 30.0023 115.027 30.0181 115.195 30.0496C115.365 30.0793 115.528 30.1415 115.686 30.236C115.845 30.3305 115.977 30.4732 116.082 30.664C116.187 30.8548 116.24 31.1104 116.24 31.4307V34.0879H115.62V33.5417H115.589C115.547 33.6293 115.477 33.7229 115.379 33.8227C115.28 33.9225 115.15 34.0074 114.987 34.0774C114.824 34.1474 114.626 34.1824 114.391 34.1824ZM114.486 33.6258C114.731 33.6258 114.937 33.5776 115.105 33.4814C115.275 33.3851 115.403 33.2608 115.489 33.1085C115.576 32.9562 115.62 32.796 115.62 32.628V32.0609C115.594 32.0924 115.536 32.1212 115.447 32.1475C115.359 32.172 115.258 32.1939 115.142 32.2131C115.028 32.2306 114.917 32.2464 114.809 32.2604C114.702 32.2727 114.615 32.2832 114.549 32.2919C114.388 32.3129 114.237 32.3471 114.097 32.3943C113.959 32.4398 113.847 32.509 113.761 32.6017C113.677 32.6928 113.635 32.8171 113.635 32.9746C113.635 33.1899 113.715 33.3527 113.874 33.463C114.035 33.5715 114.239 33.6258 114.486 33.6258ZM117.371 34.0879V30.0548H117.99V31.8088H118.4L119.849 30.0548H120.648L119.02 31.9978L120.669 34.0879H119.87L118.547 32.3864H117.99V34.0879H117.371ZM122.814 34.1719C122.436 34.1719 122.111 34.0826 121.838 33.9041C121.565 33.7255 121.355 33.4796 121.208 33.1663C121.061 32.8529 120.987 32.495 120.987 32.0924C120.987 31.6828 121.062 31.3213 121.213 31.0079C121.365 30.6929 121.577 30.4469 121.848 30.2701C122.121 30.0916 122.44 30.0023 122.804 30.0023C123.088 30.0023 123.343 30.0548 123.571 30.1598C123.798 30.2649 123.985 30.4119 124.13 30.601C124.275 30.79 124.365 31.0106 124.4 31.2626H123.781C123.733 31.0788 123.628 30.9161 123.466 30.7743C123.305 30.6307 123.088 30.559 122.814 30.559C122.573 30.559 122.361 30.622 122.179 30.748C121.999 30.8723 121.858 31.0482 121.756 31.2758C121.657 31.5016 121.607 31.7668 121.607 32.0714C121.607 32.3829 121.656 32.6543 121.754 32.8853C121.853 33.1164 121.994 33.2958 122.174 33.4236C122.356 33.5514 122.569 33.6153 122.814 33.6153C122.976 33.6153 123.122 33.5873 123.253 33.5312C123.384 33.4752 123.495 33.3947 123.586 33.2897C123.677 33.1847 123.742 33.0586 123.781 32.9116H124.4C124.365 33.1496 124.279 33.3641 124.14 33.5549C124.004 33.7439 123.823 33.8945 123.597 34.0065C123.373 34.1168 123.112 34.1719 122.814 34.1719ZM125.926 33.1741L127.869 30.0548H128.583V34.0879H127.963V30.9686L126.031 34.0879H125.306V30.0548H125.926V33.1741Z" fill="white"/>
</svg>
