<svg width="46" height="46" viewBox="0 0 46 46" fill="none" xmlns="http://www.w3.org/2000/svg">
<rect width="46" height="46" rx="7.38956" fill="#1E6AFF"/>
<path d="M16.3216 29.0365C16.3216 33.7754 10.9415 36.4145 10.4184 36.6599C10.39 36.6732 10.3652 36.6732 10.3368 36.6599C9.81371 36.4145 4.43359 33.7754 4.43359 29.0365C4.43359 25.7537 7.09481 23.0925 10.3776 23.0925C13.6604 23.0925 16.3216 25.7537 16.3216 29.0365Z" fill="white"/>
<path d="M42.555 14.2572C42.555 18.9961 37.1749 21.6352 36.6518 21.8806C36.6234 21.8939 36.5986 21.8939 36.5702 21.8806C36.0471 21.6352 30.667 18.9961 30.667 14.2572C30.667 10.9744 33.3282 8.31317 36.611 8.31317C39.8938 8.31317 42.555 10.9744 42.555 14.2572Z" fill="white"/>
<path d="M9.14453 35.1924C20.0441 36.9475 41.5098 30.2142 26.9436 27.854C12.3775 25.4937 24.8473 20.9675 37.502 20.4133" stroke="white" stroke-width="1.47791" stroke-dasharray="3.33 3.33"/>
<path d="M34.1883 17.4109V12.8315H38.9155V13.8409H35.4563V14.4318H37.3829C38.8047 14.4318 39.2479 15.0412 39.2479 15.8783V15.946C39.2479 16.7831 38.7863 17.4109 37.3829 17.4109H34.1883ZM35.4563 16.4015H37.2844C37.7214 16.4015 37.9307 16.2107 37.9307 15.9337V15.8906C37.9307 15.6198 37.7214 15.4413 37.2844 15.4413H35.4563V16.4015Z" fill="#1E6AFF"/>
<path d="M11.1505 30.1488L10.3195 28.2838L9.51319 30.1488H11.1505ZM11.9506 31.94L11.5752 31.0906H9.10079L8.73148 31.94H7.45736L9.48857 27.3605H11.1874L13.3109 31.94H11.9506Z" fill="#1E6AFF"/>
</svg>
