<svg xmlns="http://www.w3.org/2000/svg" xmlns:xlink="http://www.w3.org/1999/xlink" version="1.1">
    <!-- для css -->
    <view id="angle-top-orange-light-view" viewBox="0 0 14 14"/>
    <use xlink:href="#angle-top" width="14" stroke="#D9895F" height="14" x="0" y="0"/>
    <view id="angle-top-orange-dark-view" viewBox="15 0 14 14"/>
    <use xlink:href="#angle-top" width="14" stroke="#FF6C00" height="14" x="15" y="0"/>

    <!-- для html -->
    <symbol viewBox="0 0 12 18" id="icon-enter">
        <path fill-rule="evenodd" clip-rule="evenodd" d="M8.95546 0.850779L6.27585 0.423069C3.36058 -0.0422595 1.90294 -0.274924 0.951469 0.536719C0 1.34836 0 2.82445 0 5.77664V8.09532H4.99539L2.71877 5.20475L4.13844 4.08662L7.56701 8.43982L8.00733 8.99888L7.56701 9.55794L4.13844 13.9111L2.71877 12.793L4.99539 9.90244H0V12.2201C0 15.1723 0 16.6484 0.951469 17.46C1.90294 18.2716 3.36058 18.039 6.27586 17.5737L8.95546 17.1459C10.4088 16.914 11.1355 16.798 11.5677 16.2912C12 15.7845 12 15.0486 12 13.5769V4.41982C12 2.94809 12 2.21222 11.5677 1.70548C11.1355 1.19875 10.4088 1.08276 8.95546 0.850779Z" fill="white"/>
    </symbol>
    <symbol viewBox="0 0 12 13" id="icon-phone">
        <path fill-rule="evenodd" clip-rule="evenodd" d="M0.60677 5.28284C2.00584 8.33139 4.49179 10.7476 7.57786 12.0584L8.0734 12.2793C8.62216 12.5238 9.23956 12.5667 9.8168 12.4003C10.394 12.234 10.8941 11.8691 11.2288 11.37L11.8767 10.4046C11.9781 10.2532 12.0191 10.0693 11.9917 9.8891C11.9643 9.70892 11.8705 9.54554 11.7287 9.43113L9.53379 7.65923C9.45735 7.59756 9.36924 7.55199 9.27476 7.52525C9.18027 7.4985 9.08136 7.49114 8.98396 7.50361C8.88657 7.51607 8.79269 7.5481 8.70797 7.59777C8.62325 7.64745 8.54944 7.71374 8.49097 7.79267L7.81179 8.70924C6.06836 7.84768 4.65718 6.43538 3.79645 4.69075L4.71174 4.01115C4.79062 3.95265 4.85688 3.87879 4.90652 3.79402C4.95616 3.70925 4.98817 3.61532 5.00063 3.51786C5.01308 3.4204 5.00573 3.32143 4.979 3.22689C4.95228 3.13235 4.90673 3.04419 4.8451 2.9677L3.07427 0.771419C2.95993 0.62956 2.79665 0.535686 2.61658 0.508289C2.43651 0.480891 2.25272 0.521957 2.10141 0.623396L1.13 1.27528C0.628195 1.612 0.262143 2.11603 0.0970564 2.69759C-0.06803 3.27915 -0.0214298 3.90046 0.228555 4.45085L0.60677 5.28284Z" fill="white"/>
    </symbol>
    <symbol viewBox="0 0 12 12" id="icon-auto">
        <path d="M2 10.6667V11C2 11.2778 1.90289 11.514 1.70867 11.7087C1.51444 11.9033 1.27822 12.0004 1 12C0.721778 11.9996 0.485778 11.9024 0.292 11.7087C0.0982222 11.5149 0.000888889 11.2787 0 11V6.23333C0 6.15556 0.00555562 6.07778 0.0166667 6C0.0277778 5.92222 0.0444444 5.85 0.0666666 5.78333L1.31667 2.23333C1.40556 1.96667 1.56667 1.75 1.8 1.58333C2.03333 1.41667 2.29444 1.33333 2.58333 1.33333H4V0.666667C4 0.477778 4.064 0.319556 4.192 0.192C4.32 0.0644445 4.47822 0.000444444 4.66667 0H7.33333C7.52222 0 7.68067 0.0640001 7.80867 0.192C7.93667 0.32 8.00044 0.478222 8 0.666667V1.33333H9.41667C9.70556 1.33333 9.96667 1.41667 10.2 1.58333C10.4333 1.75 10.5944 1.96667 10.6833 2.23333L11.9333 5.78333C11.9556 5.85 11.9722 5.92222 11.9833 6C11.9944 6.07778 12 6.15556 12 6.23333V11C12 11.2778 11.9029 11.514 11.7087 11.7087C11.5144 11.9033 11.2782 12.0004 11 12C10.7218 11.9996 10.4858 11.9024 10.292 11.7087C10.0982 11.5149 10.0009 11.2787 10 11V10.6667H2ZM1.86667 4.66667H10.1333L9.43333 2.66667H2.56667L1.86667 4.66667ZM3 8.66667C3.27778 8.66667 3.514 8.56956 3.70867 8.37533C3.90333 8.18111 4.00044 7.94489 4 7.66667C3.99956 7.38844 3.90244 7.15244 3.70867 6.95867C3.51489 6.76489 3.27867 6.66756 3 6.66667C2.72133 6.66578 2.48533 6.76311 2.292 6.95867C2.09867 7.15422 2.00133 7.39022 2 7.66667C1.99867 7.94311 2.096 8.17933 2.292 8.37533C2.488 8.57133 2.724 8.66844 3 8.66667ZM9 8.66667C9.27778 8.66667 9.514 8.56956 9.70867 8.37533C9.90333 8.18111 10.0004 7.94489 10 7.66667C9.99956 7.38844 9.90244 7.15244 9.70867 6.95867C9.51489 6.76489 9.27867 6.66756 9 6.66667C8.72133 6.66578 8.48533 6.76311 8.292 6.95867C8.09867 7.15422 8.00133 7.39022 8 7.66667C7.99867 7.94311 8.096 8.17933 8.292 8.37533C8.488 8.57133 8.724 8.66844 9 8.66667Z" fill="currentColor"/>
    </symbol>
    <symbol viewBox="0 0 12 12" id="icon-airplane">
        <path d="M11.1728 13.8939L12.3042 12.7625L10.329 5.70971L13.249 2.78964C13.249 2.78964 14.9461 1.09259 14.1568 0.303297C13.367 -0.486556 11.6699 1.2105 11.6699 1.2105L8.74983 4.13057L1.69758 2.15592L0.566212 3.28729L6.48709 6.39331L4.45797 8.42242L2.05569 8.56686L0.924317 9.69823L3.74819 10.7108L4.76131 13.5352L5.89268 12.4039L6.03711 10.0016L8.06623 7.97245L11.1728 13.8939Z" fill="currentColor"/>
    </symbol>
    <symbol viewBox="0 0 11 13" id="icon-train">
        <path d="M6.78008e-07 9.23684V2.73685C6.78008e-07 2.13246 0.157668 1.65055 0.473001 1.29111C0.788334 0.931671 1.20358 0.657987 1.71875 0.470057C2.23392 0.282128 2.82127 0.156689 3.48081 0.0937418C4.14035 0.0307944 4.81342 -0.000451218 5.5 4.92237e-06C6.25625 4.92237e-06 6.96965 0.0314786 7.64019 0.0944259C8.31073 0.157373 8.8951 0.282812 9.39331 0.470742C9.89152 0.658671 10.2839 0.932355 10.5703 1.29179C10.8568 1.65123 11 2.13292 11 2.73685V9.23684C11 9.90965 10.7681 10.4771 10.3043 10.9392C9.84042 11.4012 9.27025 11.632 8.59375 11.6316L9.625 12.6579V13H8.25L6.875 11.6316H4.125L2.75 13H1.375V12.6579L2.40625 11.6316C1.73021 11.6316 1.16004 11.4008 0.695751 10.9392C0.231459 10.4775 -0.000457655 9.91011 6.78008e-07 9.23684ZM1.375 5.47369H4.8125V3.42106H1.375V5.47369ZM6.1875 5.47369H9.625V3.42106H6.1875V5.47369ZM3.09375 9.57895C3.39167 9.57895 3.63802 9.48202 3.83281 9.28816C4.0276 9.0943 4.125 8.84912 4.125 8.55263C4.125 8.25614 4.0276 8.01097 3.83281 7.81711C3.63802 7.62325 3.39167 7.52632 3.09375 7.52632C2.79583 7.52632 2.54948 7.62325 2.35469 7.81711C2.1599 8.01097 2.0625 8.25614 2.0625 8.55263C2.0625 8.84912 2.1599 9.0943 2.35469 9.28816C2.54948 9.48202 2.79583 9.57895 3.09375 9.57895ZM7.90625 9.57895C8.20417 9.57895 8.45052 9.48202 8.64531 9.28816C8.8401 9.0943 8.9375 8.84912 8.9375 8.55263C8.9375 8.25614 8.8401 8.01097 8.64531 7.81711C8.45052 7.62325 8.20417 7.52632 7.90625 7.52632C7.60833 7.52632 7.36198 7.62325 7.16719 7.81711C6.9724 8.01097 6.875 8.25614 6.875 8.55263C6.875 8.84912 6.9724 9.0943 7.16719 9.28816C7.36198 9.48202 7.60833 9.57895 7.90625 9.57895Z" fill="currentColor"/>
    </symbol>
    <symbol viewBox="0 0 12 13" id="icon-bus">
        <path d="M10.125 6.1579H1.875V2.73684H10.125M9.09375 10.2632C8.82025 10.2632 8.55794 10.155 8.36455 9.96256C8.17115 9.77009 8.0625 9.50904 8.0625 9.23684C8.0625 8.96465 8.17115 8.7036 8.36455 8.51113C8.55794 8.31866 8.82025 8.21053 9.09375 8.21053C9.36725 8.21053 9.62956 8.31866 9.82295 8.51113C10.0163 8.7036 10.125 8.96465 10.125 9.23684C10.125 9.50904 10.0163 9.77009 9.82295 9.96256C9.62956 10.155 9.36725 10.2632 9.09375 10.2632ZM2.90625 10.2632C2.63275 10.2632 2.37044 10.155 2.17705 9.96256C1.98365 9.77009 1.875 9.50904 1.875 9.23684C1.875 8.96465 1.98365 8.7036 2.17705 8.51113C2.37044 8.31866 2.63275 8.21053 2.90625 8.21053C3.17975 8.21053 3.44206 8.31866 3.63545 8.51113C3.82885 8.7036 3.9375 8.96465 3.9375 9.23684C3.9375 9.50904 3.82885 9.77009 3.63545 9.96256C3.44206 10.155 3.17975 10.2632 2.90625 10.2632ZM0.5 9.57895C0.5 10.1811 0.768125 10.7216 1.1875 11.0979V12.3158C1.1875 12.4973 1.25993 12.6713 1.38886 12.7996C1.5178 12.9279 1.69266 13 1.875 13H2.5625C2.74484 13 2.9197 12.9279 3.04864 12.7996C3.17757 12.6713 3.25 12.4973 3.25 12.3158V11.6316H8.75V12.3158C8.75 12.4973 8.82243 12.6713 8.95136 12.7996C9.08029 12.9279 9.25516 13 9.4375 13H10.125C10.3073 13 10.4822 12.9279 10.6111 12.7996C10.7401 12.6713 10.8125 12.4973 10.8125 12.3158V11.0979C11.2319 10.7216 11.5 10.1811 11.5 9.57895V2.73684C11.5 0.342105 9.03875 0 6 0C2.96125 0 0.5 0.342105 0.5 2.73684V9.57895Z" fill="currentColor"/>
    </symbol>
    <symbol viewBox="0 0 25 24" id="icon-hotel">
        <path d="M2.97251 5.77778C2.97251 5.5715 2.89494 5.37367 2.75687 5.22781C2.61879 5.08194 2.43152 5 2.23626 5C2.04099 5 1.85372 5.08194 1.71564 5.22781C1.57757 5.37367 1.5 5.5715 1.5 5.77778V18.2222C1.5 18.4285 1.57757 18.6263 1.71564 18.7722C1.85372 18.9181 2.04099 19 2.23626 19C2.43152 19 2.61879 18.9181 2.75687 18.7722C2.89494 18.6263 2.97251 18.4285 2.97251 18.2222V16.9259H21.0275V18.2222C21.0275 18.4285 21.1051 18.6263 21.2431 18.7722C21.3812 18.9181 21.5685 19 21.7637 19C21.959 19 22.1463 18.9181 22.2844 18.7722C22.4224 18.6263 22.5 18.4285 22.5 18.2222V15.7779C22.5 13.709 22.5 12.6751 22.2251 11.8434C21.9816 11.1082 21.5844 10.4403 21.0629 9.8895C20.5415 9.33869 19.9094 8.91906 19.2134 8.66178C18.426 8.37141 17.4463 8.37141 15.4889 8.37141H15.4869C14.7035 8.37141 13.6826 8.37141 13.3675 8.48652C13.0891 8.58944 12.8363 8.75727 12.6278 8.97755C12.4193 9.19784 12.2604 9.46492 12.163 9.75896C12.053 10.0919 12.053 10.5067 12.053 11.3332V15.3704H2.97251V5.77778Z" fill="currentColor"/>
        <path d="M7 14C7.66304 14 8.29893 13.7366 8.76777 13.2678C9.23661 12.7989 9.5 12.163 9.5 11.5C9.5 10.837 9.23661 10.2011 8.76777 9.73223C8.29893 9.26339 7.66304 9 7 9C6.33696 9 5.70107 9.26339 5.23223 9.73223C4.76339 10.2011 4.5 10.837 4.5 11.5C4.5 12.163 4.76339 12.7989 5.23223 13.2678C5.70107 13.7366 6.33696 14 7 14Z" fill="currentColor"/>
    </symbol>
    <symbol viewBox="0 0 24 24" id="icon-swap">
        <path d="M20 16L20.7071 16.7071L21.4142 16L20.7071 15.2929L20 16ZM12 16L12 17L12 16ZM11 14C11 13.4477 10.5523 13 10 13C9.44771 13 9 13.4477 9 14L11 14ZM16.7071 20.7071L20.7071 16.7071L19.2929 15.2929L15.2929 19.2929L16.7071 20.7071ZM20.7071 15.2929L16.7071 11.2929L15.2929 12.7071L19.2929 16.7071L20.7071 15.2929ZM20 15L12 15L12 17L20 17L20 15ZM12 15C11.4477 15 11 14.5523 11 14L9 14C9 15.6569 10.3431 17 12 17L12 15Z" fill="currentColor"/>
        <path d="M4 8L3.29289 8.70711L2.58579 8L3.29289 7.29289L4 8ZM12 8L12 7L12 8ZM15 10C15 10.5523 14.5523 11 14 11C13.4477 11 13 10.5523 13 10L15 10ZM7.29289 12.7071L3.29289 8.70711L4.70711 7.29289L8.70711 11.2929L7.29289 12.7071ZM3.29289 7.29289L7.29289 3.29289L8.70711 4.70711L4.70711 8.70711L3.29289 7.29289ZM4 7L12 7L12 9L4 9L4 7ZM12 7C13.6569 7 15 8.34314 15 10L13 10C13 9.44771 12.5523 9 12 9L12 7Z" fill="currentColor"/>
    </symbol>
    <symbol viewBox="0 0 15 15" id="icon-passenger">
        <path fill-rule="evenodd" clip-rule="evenodd" d="M14.8464 9.56597L14.9519 10.0862C15.0669 10.5307 14.9731 11.0033 14.6972 11.3702C14.4213 11.7371 13.9933 11.9583 13.5344 11.9712H10.6617C10.6624 13.1916 9.69485 14.1925 8.47513 14.2332H2.22451C1.53426 14.2218 0.887017 13.8957 0.466956 13.3479C0.0468954 12.8 -0.0999933 12.0904 0.0680863 11.4208L0.226425 10.6668C0.410539 9.62813 1.30549 8.86599 2.36023 8.84967H8.34695C8.61414 8.53034 9.0088 8.34543 9.42517 8.34449H13.4138C14.1181 8.36696 14.7129 8.87412 14.8464 9.56597ZM13.5194 10.8327C13.6113 10.8293 13.697 10.785 13.7531 10.712C13.8517 10.6125 13.9014 10.4746 13.8888 10.335L13.7833 9.81479C13.7628 9.64625 13.628 9.51456 13.459 9.49811H9.4704C9.38363 9.49869 9.30236 9.54072 9.25174 9.61121C9.03553 9.86022 8.72197 10.0032 8.39219 10.0033H2.40547C1.88929 10.0159 1.45678 10.3975 1.38004 10.9081L1.2217 11.6621C1.14436 12.0334 1.23547 12.4199 1.47052 12.7177C1.65411 12.9492 1.92928 13.0895 2.22451 13.1022H8.45251C9.05933 13.0619 9.52565 12.549 9.5081 11.9411C9.52042 11.3253 10.0232 10.8326 10.6391 10.8327H13.5194Z" fill="currentColor"/>
        <path fill-rule="evenodd" clip-rule="evenodd" d="M8.33187 4.48404C8.33187 6.14972 6.98157 7.50002 5.31589 7.50002C3.65021 7.50002 2.29991 6.14972 2.29991 4.48404V3.30027C2.29991 1.9011 3.43416 0.766846 4.83333 0.766846H5.82107C7.2114 0.77926 8.33192 1.90988 8.33187 3.30027V4.48404ZM4.83333 1.89784C4.05879 1.89784 3.4309 2.52573 3.4309 3.30027L3.45352 4.48404C3.57385 5.43345 4.3815 6.1452 5.33851 6.1452C6.29551 6.1452 7.10316 5.43345 7.2235 4.48404V3.30027C7.2235 2.52573 6.59561 1.89784 5.82107 1.89784H4.83333Z" fill="currentColor"/>
        <path fill-rule="evenodd" clip-rule="evenodd" d="M14.0472 4.67254C14.0472 5.9218 13.0344 6.93452 11.7852 6.93452C10.5359 6.93452 9.52318 5.9218 9.52318 4.67254V3.80545C9.52305 2.76773 10.3555 1.92185 11.3931 1.90538H12.1471C13.1965 1.90538 14.0472 2.75607 14.0472 3.80545V4.67254ZM11.4082 3.05145C10.9918 3.05145 10.6542 3.38903 10.6542 3.80545V4.67254C10.6542 5.29717 11.1605 5.80353 11.7852 5.80353C12.4098 5.80353 12.9162 5.29717 12.9162 4.67254V3.80545C12.9162 3.38903 12.5786 3.05145 12.1622 3.05145H11.4082Z" fill="currentColor"/>
    </symbol>
    <symbol viewBox="0 0 15 15" id="icon-baggage">
        <path stroke-width="1.2" d="M10.3333 3.49992C10.3333 2.24259 10.3333 1.61459 9.94267 1.22392C9.552 0.833252 8.924 0.833252 7.66667 0.833252C6.40933 0.833252 5.78133 0.833252 5.39067 1.22392C5 1.61459 5 2.24259 5 3.49992M1 8.83325C1 6.31925 1 5.06192 1.78133 4.28125C2.56267 3.50059 3.81933 3.49992 6.33333 3.49992H9C11.514 3.49992 12.7713 3.49992 13.552 4.28125C14.3327 5.06259 14.3333 6.31925 14.3333 8.83325C14.3333 11.3473 14.3333 12.6046 13.552 13.3853C12.7707 14.1659 11.514 14.1666 9 14.1666H6.33333C3.81933 14.1666 2.562 14.1666 1.78133 13.3853C1.00067 12.6039 1 11.3473 1 8.83325Z" stroke="currentColor" fill="transparent"/>
        <path stroke-width="0.666667" d="M10.6666 5.49992C10.6666 5.58832 10.6315 5.67311 10.569 5.73562C10.5064 5.79813 10.4217 5.83325 10.3333 5.83325C10.2448 5.83325 10.1601 5.79813 10.0975 5.73562C10.035 5.67311 9.99992 5.58832 9.99992 5.49992C9.99992 5.41151 10.035 5.32673 10.0975 5.26422C10.1601 5.2017 10.2448 5.16659 10.3333 5.16659C10.4217 5.16659 10.5064 5.2017 10.569 5.26422L10.8042 5.02899L10.569 5.26422C10.6315 5.32673 10.6666 5.41151 10.6666 5.49992ZM5.33325 5.49992C5.33325 5.58832 5.29813 5.67311 5.23562 5.73562C5.17311 5.79813 5.08832 5.83325 4.99992 5.83325C4.91151 5.83325 4.82673 5.79813 4.76422 5.73562C4.7017 5.67311 4.66659 5.58832 4.66659 5.49992C4.66659 5.41151 4.7017 5.32673 4.76422 5.26422C4.82673 5.2017 4.91151 5.16659 4.99992 5.16659C5.08832 5.16659 5.17311 5.2017 5.23562 5.26422C5.29813 5.32673 5.33325 5.41151 5.33325 5.49992Z" fill="currentColor"/>
    </symbol>
    <symbol viewBox="0 0 13 12" id="arrow-right">
        <path d="M12.543 6.54296C12.8428 6.24309 12.8428 5.75691 12.543 5.45704L7.65634 0.57043C7.35648 0.270563 6.8703 0.270563 6.57043 0.57043C6.27056 0.870297 6.27056 1.35648 6.57043 1.65634L10.9141 6L6.57043 10.3437C6.27056 10.6435 6.27056 11.1297 6.57043 11.4296C6.8703 11.7294 7.35648 11.7294 7.65634 11.4296L12.543 6.54296ZM0 6.76786H12V5.23214H0V6.76786Z" fill="#626262"/>
    </symbol>
    <symbol viewBox="0 0 13 12" id="arrow-left">
        <path d="M0.457043 5.45704C0.157176 5.75691 0.157176 6.24309 0.457043 6.54296L5.34366 11.4296C5.64352 11.7294 6.1297 11.7294 6.42957 11.4296C6.72944 11.1297 6.72944 10.6435 6.42957 10.3437L2.08591 6L6.42957 1.65634C6.72944 1.35648 6.72944 0.870297 6.42957 0.57043C6.1297 0.270563 5.64352 0.270563 5.34366 0.57043L0.457043 5.45704ZM13 5.23214H1V6.76786H13V5.23214Z" fill="#626262"/>
    </symbol>
    <symbol viewBox="0 0 38 38" id="icon--user">
        <path d="M4.75 19C4.75 11.1299 11.1299 4.75 19 4.75C26.8701 4.75 33.25 11.1299 33.25 19C33.25 26.8701 26.8701 33.25 19 33.25C11.1299 33.25 4.75 26.8701 4.75 19Z" fill="#E9E9E9" fill-opacity="0.24"/>
        <circle cx="19.0003" cy="15.8333" r="6.33333" fill="#DFDFDF"/>
        <path fill-rule="evenodd" clip-rule="evenodd" d="M28.907 28.9852C28.964 29.0823 28.9463 29.2054 28.865 29.2833C26.3047 31.7401 22.8287 33.25 19.0001 33.25C15.1718 33.25 11.696 31.7403 9.13573 29.2838C9.05453 29.2059 9.03682 29.0828 9.09379 28.9858C10.9167 25.8805 14.6683 23.75 19.0005 23.75C23.3325 23.75 27.084 25.8802 28.907 28.9852Z" fill="#DFDFDF"/>
    </symbol>
    <symbol viewBox="0 0 18 18" id="icon--close">
        <path fill-rule="evenodd" clip-rule="evenodd" d="M18 9C18 13.9706 13.9706 18 9 18C4.02944 18 0 13.9706 0 9C0 4.02944 4.02944 0 9 0C13.9706 0 18 4.02944 18 9ZM4.29289 13.7071C3.90237 13.3166 3.90237 12.6834 4.29289 12.2929L7.58579 9L4.29289 5.70711C3.90237 5.31658 3.90237 4.68342 4.29289 4.29289C4.68342 3.90237 5.31658 3.90237 5.70711 4.29289L9 7.58579L12.2929 4.29289C12.6834 3.90237 13.3166 3.90237 13.7071 4.29289C14.0976 4.68342 14.0976 5.31658 13.7071 5.70711L10.4142 9L13.7071 12.2929C14.0976 12.6834 14.0976 13.3166 13.7071 13.7071C13.3166 14.0976 12.6834 14.0976 12.2929 13.7071L9 10.4142L5.70711 13.7071C5.31658 14.0976 4.68342 14.0976 4.29289 13.7071Z" fill="currentColor"/>
    </symbol>
</svg>